<svg id="Icons" height="512" viewBox="0 0 74 74" width="512" xmlns="http://www.w3.org/2000/svg"><path d="m11.23 64.92a1 1 0 0 1 -1-1v-53.92a8.009 8.009 0 0 1 8-8h2.77a1 1 0 0 1 0 2h-2.77a6.006 6.006 0 0 0 -6 6v53.92a1 1 0 0 1 -1 1z"/><path d="m62.77 57.84h-41.77a1 1 0 0 1 -1-1v-53.84a1 1 0 0 1 1-1h41.77a1 1 0 0 1 1 1v53.84a1 1 0 0 1 -1 1zm-40.77-2h39.77v-51.84h-39.77z"/><path d="m62.77 72h-44.46a8.08 8.08 0 0 1 0-16.16h44.46a1 1 0 0 1 1 1v14.16a1 1 0 0 1 -1 1zm-44.46-14.16a6.08 6.08 0 0 0 0 12.16h43.46v-12.16z"/><path d="m54 25h-24.23a1 1 0 0 1 -1-1v-10a1 1 0 0 1 1-1h24.23a1 1 0 0 1 1 1v10a1 1 0 0 1 -1 1zm-23.23-2h22.23v-8h-22.23z"/><path d="m53.458 64.92h-32.916a1 1 0 0 1 0-2h32.916a1 1 0 0 1 0 2z"/></svg>